# xmcd
#
# Track frame offsets:
#	182
#	11935
#	27492
#	38332
#	52017
#	62200
#	75637
#	91635
#	99647
#	113852
#	124275
#	140255
#	157020
#	181807
#	193660
#	209252
#	222045
#	232460
#	243645
#	258860
#
# Disc length: 3626 seconds
#
# Revision: 0
# Processed by: cddbd v1.5.2PL0 Copyright (c) Steve Scherf et al.
# Submitted via: audiograbber 1.83.01
#
DISCID=1d0e2814
DTITLE=FRANK SINATRA - LIVE ON STAGE, Vol. 2
DYEAR=1900
DGENRE=Jazz
TTITLE0=Day in day out
TTITLE1=Moonlight in Vermont
TTITLE2=Imagination
TTITLE3=The moon was yellow
TTITLE4=Chicago
TTITLE5=Without a song
TTITLE6=Willow weep for me
TTITLE7=Too marvelous for words
TTITLE8=Embraceable you
TTITLE9=I could have danced all night
TTITLE10=Night and day
TTITLE11=Ol' man river
TTITLE12=One for my baby
TTITLE13=April in Paris
TTITLE14=In the still of the night
TTITLE15=The second time around
TTITLE16=Dancing in the dark
TTITLE17=All the way
TTITLE18=Angel eyes
TTITLE19=Come fly with me
EXTD=
EXTT0=
EXTT1=
EXTT2=
EXTT3=
EXTT4=
EXTT5=
EXTT6=
EXTT7=
EXTT8=
EXTT9=
EXTT10=
EXTT11=
EXTT12=
EXTT13=
EXTT14=
EXTT15=
EXTT16=
EXTT17=
EXTT18=
EXTT19=
PLAYORDER=
